<?xml version="1.0" encoding="utf-8"?>
<!-- Generator: Adobe Illustrator 24.3.0, SVG Export Plug-In . SVG Version: 6.00 Build 0)  -->
<svg version="1.1" id="Слой_1" xmlns="http://www.w3.org/2000/svg" xmlns:xlink="http://www.w3.org/1999/xlink" x="0px" y="0px"
	 viewBox="0 0 874 963" style="enable-background:new 0 0 874 963;" xml:space="preserve">
<style type="text/css">
	.st0{fill:#FFFFFF;}
</style>
<g>
	<path class="st0" d="M440.5,74c60.5,0,117.38,23.56,160.16,66.34C643.44,183.12,667,240,667,300.5s-23.56,117.38-66.34,160.16
		C557.88,503.44,501,527,440.5,527s-117.38-23.56-160.16-66.34C237.56,417.88,214,361,214,300.5s23.56-117.38,66.34-160.16
		C323.12,97.56,380,74,440.5,74 M440.5,14C282.27,14,154,142.27,154,300.5S282.27,587,440.5,587S727,458.73,727,300.5
		S598.73,14,440.5,14L440.5,14z"/>
</g>
<g>
	<path class="st0" d="M440.5,647c46.26,0,91.11,9.05,133.3,26.89c40.78,17.25,77.41,41.95,108.89,73.43s56.18,68.11,73.43,108.89
		C773.95,898.39,783,943.24,783,989.5s-9.05,91.11-26.89,133.3c-17.25,40.78-41.95,77.41-73.43,108.89s-68.11,56.18-108.89,73.43
		c-42.19,17.84-87.03,26.89-133.3,26.89s-91.11-9.05-133.3-26.89c-40.78-17.25-77.41-41.95-108.89-73.43s-56.18-68.11-73.43-108.89
		C107.05,1080.61,98,1035.76,98,989.5s9.05-91.11,26.89-133.3c17.25-40.78,41.95-77.41,73.43-108.89s68.11-56.18,108.89-73.43
		C349.39,656.05,394.24,647,440.5,647 M440.5,587C218.21,587,38,767.21,38,989.5S218.21,1392,440.5,1392S843,1211.79,843,989.5
		S662.79,587,440.5,587L440.5,587z"/>
</g>
<g>
</g>
<g>
</g>
<g>
</g>
<g>
</g>
<g>
</g>
<g>
</g>
<g>
</g>
<g>
</g>
<g>
</g>
<g>
</g>
<g>
</g>
<g>
</g>
<g>
</g>
<g>
</g>
<g>
</g>
</svg>
