<?xml version="1.0" encoding="utf-8"?>
<!-- Generator: Adobe Illustrator 24.3.0, SVG Export Plug-In . SVG Version: 6.00 Build 0)  -->
<svg version="1.1" id="Capa_1" xmlns="http://www.w3.org/2000/svg" xmlns:xlink="http://www.w3.org/1999/xlink" x="0px" y="0px"
	 viewBox="0 0 427 427" style="enable-background:new 0 0 427 427;" xml:space="preserve">
<style type="text/css">
	.st0{fill:#FFFFFF;}
</style>
<rect width="427" height="427"/>
<circle class="st0" cx="213.5" cy="213.5" r="207.5"/>
<path d="M213.5,103.1c36,0,40.2,0.1,54.4,0.8c36.5,1.7,53.5,19,55.2,55.2c0.7,14.2,0.8,18.5,0.8,54.4c0,36-0.1,40.2-0.8,54.4
	c-1.7,36.2-18.7,53.5-55.2,55.2c-14.2,0.7-18.4,0.8-54.4,0.8c-36,0-40.2-0.1-54.4-0.8c-36.6-1.7-53.5-19.1-55.2-55.2
	c-0.7-14.2-0.8-18.4-0.8-54.4c0-36,0.1-40.2,0.8-54.4c1.7-36.2,18.7-53.5,55.2-55.2C173.3,103.3,177.5,103.1,213.5,103.1z
	 M213.5,78.9c-36.6,0-41.1,0.2-55.5,0.8C109.1,81.9,81.9,109,79.7,158c-0.7,14.4-0.8,19-0.8,55.5s0.2,41.2,0.8,55.5
	c2.2,48.9,29.4,76.1,78.3,78.3c14.4,0.7,19,0.8,55.5,0.8s41.2-0.2,55.5-0.8c48.9-2.2,76.1-29.4,78.3-78.3c0.7-14.4,0.8-19,0.8-55.5
	s-0.2-41.1-0.8-55.5c-2.2-48.9-29.4-76.1-78.3-78.3C254.7,79,250.1,78.9,213.5,78.9z M213.5,144.4c-38.2,0-69.1,31-69.1,69.1
	s31,69.2,69.1,69.2s69.1-31,69.1-69.2C282.6,175.3,251.7,144.4,213.5,144.4z M213.5,258.4c-24.8,0-44.9-20.1-44.9-44.9
	c0-24.8,20.1-44.9,44.9-44.9s44.9,20.1,44.9,44.9C258.4,238.3,238.3,258.4,213.5,258.4z M285.4,125.5c-8.9,0-16.2,7.2-16.2,16.2
	s7.2,16.2,16.2,16.2c8.9,0,16.1-7.2,16.1-16.2S294.3,125.5,285.4,125.5z"/>
</svg>
