<?xml version="1.0" encoding="utf-8"?>
<!-- Generator: Adobe Illustrator 24.3.0, SVG Export Plug-In . SVG Version: 6.00 Build 0)  -->
<svg version="1.1" id="Слой_1" xmlns="http://www.w3.org/2000/svg" xmlns:xlink="http://www.w3.org/1999/xlink" x="0px" y="0px"
	 viewBox="0 0 558 200" style="enable-background:new 0 0 558 200;" xml:space="preserve">
<style type="text/css">
	.st0{fill:#FFFFFF;}
</style>
<g>
	<path class="st0" d="M55.68,183.72c-8.77,0-18.2-2.6-25-7.08v-34.45h0.88c5.04,7.08,11.84,10.62,18.2,10.62
		c12.06,0,17.77-7.55,17.77-23.13V18.52h30.49v117.29C98.01,163.19,86.39,183.72,55.68,183.72z M52.61,166.02
		c20.18,0,28.07-11.09,28.07-33.75V88.14h-8.77v42.48c0,17.23-7.24,26.9-21.71,26.9c-5.04,0-11.19-2.12-15.13-6.14v8.97
		C39.67,164.13,46.25,166.02,52.61,166.02z M54.8,179v-8.5h-1.97c-5.7,0-12.5-1.89-17.77-5.19v8.5C40.33,177.11,48,179,54.8,179z
		 M59.19,178.76c25.66-1.65,34.43-19.35,34.43-43.66V23.24h-8.55v110.21c0,19.59-6.8,33.98-25.88,36.58V178.76z M71.91,83.42h8.77
		V23.24h-8.77V83.42z"/>
	<path class="st0" d="M189.91,183.72c-34.43,0-56.15-19.12-56.15-55.22V18.52h30.71v106.67c0,18.88,9.21,28.32,25.44,28.32
		c16.01,0,25.22-9.44,25.22-28.32V18.52h30.71V128.5C245.84,164.6,224.13,183.72,189.91,183.72z M189.91,179h4.17v-8.02h-4.17
		c-25.88,0-42.99-14.63-42.99-43.89V23.24h-8.77v104.78C138.15,162.01,158.55,179,189.91,179z M180.92,165.55v-8.26
		c-13.16-3.3-20.84-14.4-20.84-31.62V23.24h-8.77v103.36C151.31,149.5,162.71,162.48,180.92,165.55z M189.91,166.25
		c23.03,0,38.38-13.22,38.38-39.65V23.24h-8.77v102.42c0,21-11.4,32.57-29.61,32.57c-1.54,0-3.07,0-4.61-0.24v8.02
		C186.84,166.25,188.38,166.25,189.91,166.25z M198.46,178.53c26.32-3.07,42.99-19.82,42.99-50.5V23.24h-8.77v103.84
		c0,25.96-13.16,40.35-34.22,43.19V178.53z"/>
	<path class="st0" d="M283.56,179.47V18.52h51.76c28.73,0,47.81,14.63,47.81,41.06c0,15.1-5.04,25.02-12.5,33.04v0.24
		c12.72,7.79,21.06,20.3,21.06,40.12c0,29.97-20.84,46.49-55.49,46.49H283.56z M287.95,174.75h8.77V23.24h-8.77V174.75z
		 M301.11,174.75h35.09c31.36,0,50.88-14.16,50.88-41.77c0-17.23-7.46-31.86-24.13-38.7c8.99-8.02,15.79-18.64,15.57-33.75
		c-0.44-24.54-17.77-37.29-44.08-37.29h-33.34V174.75z M355.5,91.92c-6.14-1.89-12.28-2.36-17.77-2.36h-27.86V30.09h23.25
		c22.37,0,36.85,11.56,36.85,32.33C369.98,75.87,363.18,85.31,355.5,91.92z M309.88,167.91V96.16h28.51
		c26.1,0,40.14,13.69,40.14,36.11c0,22.18-15.79,35.63-42.33,35.63H309.88z M354.63,86.72c6.36-5.66,10.75-13.92,10.75-23.36
		c0-18.64-13.16-28.56-32.9-28.56h-18.2v7.08h16.89c16.01,0,25.44,8.97,25.44,22.66c0,8.97-3.73,15.58-10.53,20.77
		C348.49,85.54,352,86.02,354.63,86.72z M314.27,84.84h25.22c6.8-4.01,12.5-11.09,12.5-19.59c0-11.33-8.33-18.64-21.27-18.64h-16.45
		V84.84z M314.27,163.19h21.71c23.47,0,37.94-11.33,37.94-31.39c0-18.41-12.06-31.15-33.56-31.15h-26.1v6.61h24.35
		c18.2,0,26.76,9.68,26.76,24.07c0,16.05-10.53,24.78-29.39,24.78h-21.71V163.19z M314.27,151.39h21.71
		c15.79,0,24.78-6.37,24.78-20.53c0-12.27-9.21-18.88-23.47-18.88h-23.03V151.39z"/>
	<path class="st0" d="M400.69,179.47l59.66-160.95h26.98l59.66,160.95H513.2l-12.28-37.76h-55.49l-12.28,37.76H400.69z
		 M407.27,174.75h9.21l13.16-37.76h74.35l12.5,37.76h9.21l-15.79-45.78h-77.42l34.43-97.7h0.88l27.64,80.24h8.33l-30.93-88.26h-9.65
		L407.27,174.75z M421.08,174.75h8.77l10.97-33.04h-8.33L421.08,174.75z M530.31,174.75h10.09L484.47,23.24h-7.46l32.9,92.98h-60.54
		l21.49-63.01l-3.51-10.86l-28.73,81.89h74.13L530.31,174.75z M455.74,111.5h34.87l-17.33-51.45h-0.22L455.74,111.5z"/>
</g>
<g>
</g>
<g>
</g>
<g>
</g>
<g>
</g>
<g>
</g>
<g>
</g>
<g>
</g>
<g>
</g>
<g>
</g>
<g>
</g>
<g>
</g>
<g>
</g>
<g>
</g>
<g>
</g>
<g>
</g>
</svg>
