<?xml version="1.0" encoding="utf-8"?>
<!-- Generator: Adobe Illustrator 24.3.0, SVG Export Plug-In . SVG Version: 6.00 Build 0)  -->
<svg version="1.1" id="Capa_1" xmlns="http://www.w3.org/2000/svg" xmlns:xlink="http://www.w3.org/1999/xlink" x="0px" y="0px"
	 viewBox="0 0 427 427" style="enable-background:new 0 0 427 427;" xml:space="preserve">
<style type="text/css">
	.st0{fill:#FFFFFF;}
</style>
<rect width="427" height="427"/>
<circle class="st0" cx="213.5" cy="213.5" r="207.5"/>
<g>
	<path d="M342.6,294.3c-0.3-0.8-0.6-1.5-0.9-2.1c-4.7-9.9-13.8-22-27.1-36.4l-0.3-0.3l-0.1-0.2l-0.1-0.2h-0.1
		c-6.1-6.7-9.9-11.2-11.5-13.5c-2.9-4.4-3.6-8.8-2-13.3c1.1-3.4,5.4-10.6,12.8-21.6c3.9-5.8,7-10.5,9.2-14
		c16.4-25.3,23.5-41.4,21.3-48.4l-0.8-1.6c-0.6-1-2-1.9-4.4-2.7c-2.4-0.8-5.4-1-9.1-0.4l-40.9,0.3c-0.7-0.3-1.6-0.2-2.8,0.1
		c-1.2,0.3-1.8,0.5-1.8,0.5l-0.7,0.4l-0.6,0.5c-0.5,0.3-1,0.9-1.6,1.7c-0.6,0.8-1,1.8-1.4,2.9c-4.5,13.3-9.5,25.6-15.2,37.1
		c-3.5,6.8-6.7,12.7-9.7,17.7c-2.9,5-5.4,8.7-7.4,11c-2,2.4-3.8,4.3-5.4,5.7c-1.6,1.4-2.8,2-3.7,1.8c-0.9-0.2-1.7-0.4-2.4-0.7
		c-1.3-1-2.4-2.3-3.2-4c-0.8-1.7-1.4-3.8-1.6-6.4c-0.3-2.6-0.5-4.8-0.5-6.7c0-1.9,0-4.5,0.1-7.9c0.1-3.4,0.1-5.7,0.1-6.9
		c0-4.2,0.1-8.7,0.2-13.6c0.1-4.9,0.3-8.8,0.4-11.6c0.1-2.9,0.1-5.9,0.1-9.1s-0.2-5.7-0.5-7.5c-0.3-1.8-0.8-3.6-1.5-5.3
		c-0.7-1.7-1.6-3-2.9-4c-1.3-0.9-2.9-1.7-4.8-2.2c-5-1.3-11.4-2-19.2-2.1c-17.6-0.2-28.9,1.1-34,4c-2,1.2-3.8,2.9-5.4,4.9
		c-1.7,2.4-1.9,3.7-0.7,4c5.7,1,9.7,3.3,12.1,7.1l0.9,2c0.7,1.4,1.3,4,2,7.6c0.7,3.6,1.1,7.6,1.3,12c0.5,8,0.5,14.9,0,20.6
		c-0.5,5.7-0.9,10.2-1.4,13.3s-1.1,5.8-1.9,7.7c-0.9,2-1.4,3.2-1.7,3.6c-0.3,0.4-0.5,0.7-0.7,0.8c-1.2,0.5-2.5,0.8-3.8,0.8
		c-1.3,0-2.9-0.8-4.8-2.3c-1.9-1.5-3.9-3.7-5.9-6.3c-2-2.7-4.3-6.5-6.9-11.3c-2.6-4.8-5.2-10.5-8-17.1l-2.3-4.8
		c-1.4-3.1-3.4-7.6-5.8-13.4c-2.5-5.9-4.6-11.6-6.5-17.1c-0.8-2.3-1.9-4.1-3.4-5.3l-0.7-0.5c-0.5-0.4-1.2-0.9-2.3-1.4
		c-1-0.5-2.1-0.9-3.3-1.1l-38.9,0.3c-4,0-6.7,1-8.1,3.1l-0.6,1c-0.3,0.5-0.4,1.4-0.4,2.6c0,1.2,0.3,2.7,0.9,4.4
		c5.7,15.5,11.9,30.4,18.5,44.8c6.7,14.4,12.5,26,17.4,34.8c4.9,8.8,9.9,17.1,15.1,24.9c5.1,7.8,8.5,12.8,10.2,15
		c1.7,2.2,3,3.8,3.9,4.9l3.6,4c2.3,2.6,5.6,5.8,10,9.5c4.4,3.7,9.3,7.3,14.6,10.9c5.4,3.6,11.6,6.5,18.7,8.7
		c7.1,2.3,14,3.2,20.8,2.7H221c3.3-0.3,5.8-1.5,7.5-3.6l0.6-0.8c0.4-0.7,0.7-1.7,1.1-3c0.3-1.4,0.5-2.9,0.5-4.5
		c-0.1-4.7,0.2-9,0.9-12.8c0.7-3.8,1.5-6.6,2.4-8.6c0.9-1.9,1.9-3.5,3.1-4.9c1.1-1.3,1.9-2.1,2.4-2.4c0.5-0.3,0.8-0.5,1.1-0.6
		c2.3-0.9,5,0,8,2.6c3.1,2.6,6,5.8,8.7,9.6c2.7,3.8,5.9,8,9.7,12.8c3.8,4.7,7.1,8.2,9.9,10.5l2.8,2c1.9,1.3,4.4,2.5,7.4,3.6
		c3,1.1,5.7,1.4,8,0.8l36.4-0.7c3.6,0,6.4-0.7,8.4-2.1c2-1.4,3.2-2.9,3.6-4.5c0.4-1.6,0.4-3.5,0.1-5.6
		C343.2,296.6,342.9,295.1,342.6,294.3z"/>
</g>
</svg>
